<?xml version="1.0" encoding="utf-8"?>
<!-- Generator: Adobe Illustrator 19.2.1, SVG Export Plug-In . SVG Version: 6.00 Build 0)  -->
<svg version="1.1" id="layer" xmlns="http://www.w3.org/2000/svg" xmlns:xlink="http://www.w3.org/1999/xlink" x="0px" y="0px"
	 viewBox="0 0 652 652" style="enable-background:new 0 0 652 652;" xml:space="preserve">
<style type="text/css">
	.st0{fill:#1C1C1B;}
</style>
<g>
	<path class="st0" d="M159.2,319.6c0,7.3-0.3,10.7-2,12.8c-1.6,1.9-3.8,3-7,3h-7.1v-31.2h7.1c3.2,0,5.4,1,7,3
		C158.9,309.3,159.2,312.4,159.2,319.6 M168.5,319.6c0-7.2,0.5-13.8-4.8-19.2c-3.2-3.2-7.7-4.6-12.6-4.6h-17.3v47.9H151
		c5,0,9.5-1.4,12.6-4.6C169,333.8,168.5,326.8,168.5,319.6"/>
</g>
<g>
	<polygon class="st0" points="176.5,343.8 206,343.8 206,335.4 185.3,335.4 185.3,323.8 202.9,323.8 202.9,315.4 185.3,315.4 
		185.3,304.2 206,304.2 206,295.9 176.5,295.9 	"/>
</g>
<g>
	<path class="st0" d="M223.5,308.3c0-2.6,2.2-4.6,6.1-4.6c3.5,0,6.9,1.6,10,4.1l0.6,0.5l5.2-7l-0.5-0.4c-4.4-3.8-9.5-5.6-15.1-5.6
		c-8.9,0-15.4,5.6-15.4,13.8c0,7.9,5,11.3,13.9,14.7c7.4,2.7,8.5,4.5,8.5,7c0,3-2.4,5-6.6,5c-4.7,0-8.4-2.1-11.8-5.2l-0.8-0.8
		l-5.2,7.2l0.5,0.4c5.2,4.8,11.1,6.9,17.3,6.9c9,0,15.8-5.5,15.8-14.2c0-7.2-4.4-11-13.1-14.3C224.7,312.7,223.5,311.1,223.5,308.3"
		/>
</g>
<g>
	<rect x="256.1" y="295.9" class="st0" width="9.3" height="47.9"/>
</g>
<g>
	<path class="st0" d="M308,338.8c3.3-3.5,4.6-7.6,4.6-14.6V324v-8.5h-18.1v8.3h9.3v3c0,2.6-0.7,4.8-2.2,6.4
		c-1.7,1.8-4.4,2.7-7.2,2.7c-2.6,0-4.6-0.8-6-2.5c-1.9-2.2-2.3-4.1-2.3-13.5c0-9.5,0.5-11.2,2.3-13.5c1.2-1.4,2.8-2.2,4.7-2.5
		c0.4-0.1,0.9-0.1,1.3-0.1c3.5,0,6.9,1.6,10,4.1l0.6,0.5l5.2-7l-0.5-0.4c-4.4-3.8-9.5-5.6-15.1-5.6l-1,0c-4.8,0.2-8.9,2-12.3,5.4
		c-2.1,2.1-3.4,4.4-3.9,7.2c-0.5,2.7-0.8,6.7-0.8,11.9c0,5.2,0.3,9.2,0.8,11.9c0.5,2.7,1.8,5.1,3.9,7.2c3.5,3.5,7.8,5.2,12.9,5.2
		C299.9,344.2,304.3,342.5,308,338.8"/>
</g>
<g>
	<polygon class="st0" points="349.4,343.8 357.8,343.8 357.8,295.9 348.4,295.9 348.4,325.2 329.5,295.9 321.1,295.9 321.1,343.8 
		330.5,343.8 330.5,314.4 	"/>
	<polygon class="st0" points="409.7,343.8 419,343.8 419,295.9 409.7,295.9 409.7,315.4 393.5,315.4 393.5,295.9 384.1,295.9 
		384.1,343.8 393.5,343.8 393.5,323.7 409.7,323.7 	"/>
</g>
<g>
	<path class="st0" d="M454.3,319.6c0,9.3-0.5,11.5-2.4,13.6c-1.4,1.6-3.5,2.6-6,2.6s-4.8-1-6.1-2.6c-1.8-2-2.3-4.3-2.3-13.6
		c0-9.3,0.5-11.6,2.3-13.6c1.4-1.6,3.5-2.6,6.1-2.6s4.7,1,6,2.6C453.8,308.1,454.3,310.3,454.3,319.6 M458.9,338.9
		c4.9-4.9,4.8-10.9,4.8-19.3c0-8.4,0.1-14.4-4.8-19.3c-3.4-3.4-7.5-5.3-13-5.3c-5.5,0-9.7,1.9-13.1,5.3c-4.9,4.9-4.7,10.9-4.7,19.3
		c0,8.4-0.1,14.4,4.7,19.3c3.4,3.4,7.6,5.3,13.1,5.3C451.4,344.2,455.5,342.3,458.9,338.9"/>
</g>
<g>
	<polygon class="st0" points="488.9,304.2 500.3,304.2 500.3,295.9 468.1,295.9 468.1,304.2 479.6,304.2 479.6,343.8 488.9,343.8 	
		"/>
	<polygon class="st0" points="507.1,343.8 536.5,343.8 536.5,335.4 515.8,335.4 515.8,323.8 533.4,323.8 533.4,315.4 515.8,315.4 
		515.8,304.2 536.5,304.2 536.5,295.9 507.1,295.9 	"/>
	<polygon class="st0" points="546.4,343.8 570.3,343.8 570.3,335.4 555.7,335.4 555.7,295.9 546.4,295.9 	"/>
</g>
<g>
	<path class="st0" d="M585.6,308.3c0-2.6,2.2-4.6,6.1-4.6c3.5,0,6.9,1.6,10,4.1l0.6,0.5l5.2-7l-0.5-0.4c-4.4-3.8-9.5-5.6-15.1-5.6
		c-8.9,0-15.4,5.6-15.4,13.8c0,7.9,5,11.3,13.9,14.7c7.4,2.7,8.5,4.5,8.5,7c0,3-2.4,5-6.6,5c-4.7,0-8.4-2.1-11.8-5.2l-0.7-0.7
		l-5.3,7l0.5,0.4c5.2,4.8,11.1,6.9,17.3,6.9c9,0,15.8-5.5,15.8-14.2c0-7.2-4.4-11-13.1-14.3C586.8,312.7,585.6,311.1,585.6,308.3"/>
	<path class="st0" d="M80,337.4c0,4.5-2.8,6.2-6.2,6.2h-0.1c-3.4,0-6.2-1.9-6.2-6.2v-35.3c0-4.4,2.8-6.2,6.2-6.2h0.1
		c3.4,0,6.2,1.8,6.2,6.2V337.4z M61.2,337.4c0,4.5-2.8,6.2-6.2,6.2h-0.1c-3.4,0-6.2-1.9-6.2-6.2v-16.1c0-4.4,2.8-6.2,6.2-6.2H55
		c3.4,0,6.2,1.8,6.2,6.2V337.4z M65.5,277.5C41.5,277.5,22,297,22,321c0,24,19.5,43.5,43.5,43.5c24,0,43.5-19.5,43.5-43.5
		C109.1,297,89.6,277.5,65.5,277.5"/>
</g>
<g>
	<path class="st0" d="M611.6,295.9v1h1.5v4.8h1.1V297h1.5v-1H611.6z M620.9,295.9l-1.5,3.2l-1.5-3.2h-1.1v5.9h1.1v-3.4l1.1,2.2h0.8
		l1.1-2.2v3.4h1.1v-5.9H620.9z"/>
	<path class="st0" d="M98,278.2v1h1.5v4.8h1.1v-4.8h1.5v-1H98z M107.3,278.2l-1.5,3.2l-1.5-3.2h-1.1v5.9h1.1v-3.4l1.1,2.2h0.8
		l1.1-2.2v3.4h1.1v-5.9H107.3z"/>
</g>
</svg>
